<svg xmlns="http://www.w3.org/2000/svg" viewBox="3204.25 3509 152.25 174">
  <defs>
    <style>
      .cls-1 {
        fill: #fff;
      }
    </style>
  </defs>
  <path id="calendar-alt" class="cls-1" d="M50.3,97.875H36.7A4.09,4.09,0,0,1,32.625,93.8V80.2A4.09,4.09,0,0,1,36.7,76.125H50.3A4.09,4.09,0,0,1,54.375,80.2V93.8A4.09,4.09,0,0,1,50.3,97.875ZM87,93.8V80.2a4.09,4.09,0,0,0-4.078-4.078H69.328A4.09,4.09,0,0,0,65.25,80.2V93.8a4.09,4.09,0,0,0,4.078,4.078H82.922A4.09,4.09,0,0,0,87,93.8Zm32.625,0V80.2a4.09,4.09,0,0,0-4.078-4.078H101.953A4.09,4.09,0,0,0,97.875,80.2V93.8a4.09,4.09,0,0,0,4.078,4.078h13.594A4.09,4.09,0,0,0,119.625,93.8ZM87,126.422V112.828a4.09,4.09,0,0,0-4.078-4.078H69.328a4.09,4.09,0,0,0-4.078,4.078v13.594a4.09,4.09,0,0,0,4.078,4.078H82.922A4.09,4.09,0,0,0,87,126.422Zm-32.625,0V112.828A4.09,4.09,0,0,0,50.3,108.75H36.7a4.09,4.09,0,0,0-4.078,4.078v13.594A4.09,4.09,0,0,0,36.7,130.5H50.3A4.09,4.09,0,0,0,54.375,126.422Zm65.25,0V112.828a4.09,4.09,0,0,0-4.078-4.078H101.953a4.09,4.09,0,0,0-4.078,4.078v13.594a4.09,4.09,0,0,0,4.078,4.078h13.594A4.09,4.09,0,0,0,119.625,126.422ZM152.25,38.063V157.688A16.317,16.317,0,0,1,135.938,174H16.313A16.317,16.317,0,0,1,0,157.688V38.063A16.317,16.317,0,0,1,16.313,21.75H32.625V4.078A4.09,4.09,0,0,1,36.7,0H50.3a4.09,4.09,0,0,1,4.078,4.078V21.75h43.5V4.078A4.09,4.09,0,0,1,101.953,0h13.594a4.09,4.09,0,0,1,4.078,4.078V21.75h16.312A16.317,16.317,0,0,1,152.25,38.063ZM135.938,155.648V54.375H16.313V155.648a2.045,2.045,0,0,0,2.039,2.039H133.9A2.045,2.045,0,0,0,135.938,155.648Z" transform="translate(3204.25 3509)"/>
</svg>
