<svg xmlns="http://www.w3.org/2000/svg" viewBox="3192 2449 171.666 171.666">
  <defs>
    <style>
      .cls-1 {
        fill: #fff;
      }
    </style>
  </defs>
  <path id="clock" class="cls-1" d="M93.833,8a85.833,85.833,0,1,0,85.833,85.833A85.818,85.818,0,0,0,93.833,8Zm0,155.053a69.22,69.22,0,1,1,69.22-69.22A69.2,69.2,0,0,1,93.833,163.053Zm21.389-36.133L85.838,105.566a4.18,4.18,0,0,1-1.7-3.357V45.379A4.165,4.165,0,0,1,88.3,41.226H99.371a4.165,4.165,0,0,1,4.153,4.153V94.421l23.12,16.82a4.151,4.151,0,0,1,.9,5.814l-6.507,8.964a4.182,4.182,0,0,1-5.814.9Z" transform="translate(3184 2441)"/>
</svg>
