<svg xmlns="http://www.w3.org/2000/svg" viewBox="3187.959 3168.229 168.541 130.998">
  <defs>
    <style>
      .cls-1 {
        fill: #fff;
      }
    </style>
  </defs>
  <path id="home" class="cls-1" d="M142.848,114.39v41.935a7.006,7.006,0,0,1-7.023,7.023H101.879a3.522,3.522,0,0,1-3.512-3.512V127.061a3.522,3.522,0,0,0-3.512-3.512H73.786a3.522,3.522,0,0,0-3.512,3.512v32.775a3.522,3.522,0,0,1-3.512,3.512H32.817a7.006,7.006,0,0,1-7.023-7.023V114.39a3.514,3.514,0,0,1,1.288-2.722L82.1,66.369a3.566,3.566,0,0,1,4.477,0l55.015,45.3A3.582,3.582,0,0,1,142.848,114.39Zm24.464-17.821L142.848,76.406V35.876a3.522,3.522,0,0,0-3.512-3.512H122.949a3.522,3.522,0,0,0-3.512,3.512V57.122L93.246,35.554a14.032,14.032,0,0,0-17.851,0L1.33,96.569a3.521,3.521,0,0,0-.468,4.946l7.462,9.072a3.521,3.521,0,0,0,4.946.468L82.1,54.371a3.566,3.566,0,0,1,4.477,0L155.4,111.054a3.521,3.521,0,0,0,4.946-.468l7.462-9.072A3.522,3.522,0,0,0,167.312,96.569Z" transform="translate(3187.9 3135.879)"/>
</svg>
