<svg id="Layer_1" data-name="Layer 1" xmlns="http://www.w3.org/2000/svg" viewBox="0 0 247.47 168.99"><defs><style>.cls-1{fill:none;stroke:#fff;stroke-linecap:round;stroke-linejoin:round;}</style></defs><title>2Artboard 1</title><path class="cls-1" d="M58.5,66.81s-5.09-3.89-.92-8.8,11.8-6.81,11.8-6.81,14.13-11.38,38,2.64c0,0,.59.65,2.48-.26s44.27,19.67,44.27,19.67"/><polyline class="cls-1" points="155.42 73.4 166.69 70.7 176.59 76.19 173.72 77.33 173.85 80.03 175.78 81.27 175.78 83.16 195.02 93.75 194.41 95.68"/><polyline class="cls-1" points="194.32 97.24 194.32 112.7 173.28 116.55 173.28 109.64 168.91 109.33 168.91 117.55 120.24 125.57"/><path class="cls-1" d="M118.18,125.91s-40.9,9-58.56,1.21L59.2,68.23"/><line class="cls-1" x1="60.54" y1="69.78" x2="60.54" y2="63.18"/><line class="cls-1" x1="60.54" y1="81.79" x2="60.54" y2="75.18"/><line class="cls-1" x1="60.54" y1="111.36" x2="60.54" y2="88.65"/><path class="cls-1" d="M62.39,61.35A13.68,13.68,0,0,1,68,58.47L68,66l-5.81,2.67Z"/><polygon class="cls-1" points="67.31 71.11 62.69 73.25 62.64 81.81 67.31 80.82 67.31 71.11"/><path class="cls-1" d="M66.61,86.53a15.36,15.36,0,0,0-4,1.45v23.18h4Z"/><polygon class="cls-1" points="71.07 85.78 77.96 85.36 77.96 111.21 71.07 111.21 71.07 85.78"/><polygon class="cls-1" points="71.07 70.7 78.83 69.84 78.83 79.97 70.96 80.4 71.07 70.7"/><polygon class="cls-1" points="70.61 57.94 79.71 57.13 79.42 65.22 70.61 65.57 70.61 57.94"/><path class="cls-1" d="M73.55,51.14A87.88,87.88,0,0,1,100.88,53"/><polygon class="cls-1" points="83.01 57.15 93.2 58.47 93.46 66.08 83.01 65.21 83.01 57.15"/><polyline class="cls-1" points="83.75 70.35 92.93 71.11 92.93 80.38 83.75 79.86 83.75 70.7"/><polyline class="cls-1" points="97.38 71.06 104.9 73.11 104.9 82.36 97.38 80.88 97.38 71.59"/><polygon class="cls-1" points="96.96 58.97 105.31 61.35 105.59 68.65 96.96 66.86 96.96 58.97"/><polygon class="cls-1" points="84.27 85.38 92.16 85.83 92.16 111.19 84.27 111.19 84.27 85.38"/><polygon class="cls-1" points="97.9 86.52 104.9 88.26 105 111.16 97.9 111.16 97.9 86.52"/><polyline class="cls-1" points="172.21 88.05 168.52 86.53 168.16 74.85 172.21 76.71 172.21 86.52"/><polygon class="cls-1" points="168.38 95.52 172.87 96.65 172.63 91.7 168.17 90.16 168.38 95.52"/><polygon class="cls-1" points="168.73 99.54 173.16 100.48 173.16 105.43 168.73 104.87 168.73 99.54"/><polygon class="cls-1" points="114.43 68.23 116.42 69.06 116.45 63.18 114.42 62.28 114.43 68.23"/><polygon class="cls-1" points="115.12 76.16 115.12 83.19 117.07 83.36 117.07 76.71 115.12 76.16"/><polygon class="cls-1" points="115.23 90.36 116.97 90.66 116.97 97.53 115.23 97.43 115.23 90.36"/><polygon class="cls-1" points="115.22 104.86 117.08 104.98 117.08 111.83 115.22 111.83 115.22 104.86"/><polyline class="cls-1" points="124.81 72.24 124.81 66.48 121.18 65.11 121.18 71.06 123.54 71.81"/><polygon class="cls-1" points="121.97 77.1 121.97 77.1 125.44 78.48 125.71 98.88 121.97 98.29 121.97 77.1"/><polygon class="cls-1" points="122.16 104.26 125.78 104.64 125.78 112.23 122.16 112.23 122.16 104.26"/><polygon class="cls-1" points="130 105.05 132.64 105.33 132.64 112.11 130 112.11 130 105.05"/><polygon class="cls-1" points="136.54 105.69 139.12 105.98 139.12 112.05 136.54 112.05 136.54 105.69"/><polygon class="cls-1" points="142.83 106.28 145.01 106.61 145.01 111.94 142.83 111.94 142.83 106.28"/><polygon class="cls-1" points="148.24 107.01 150.33 107.18 150.41 111.83 148.36 111.83 148.24 107.01"/><polygon class="cls-1" points="153.21 111.77 155.18 111.77 155.18 107.57 153.21 107.39 153.21 111.77"/><polygon class="cls-1" points="157.63 107.99 157.63 111.84 159.3 111.77 159.3 107.99 157.63 107.99"/><polygon class="cls-1" points="132.55 99.91 129.28 99.44 129.28 79.26 132.64 80.4 132.55 99.91"/><polygon class="cls-1" points="136.1 81.42 138.68 82.36 139.16 100.86 136.1 100.5 136.1 81.42"/><polygon class="cls-1" points="141.97 83.36 144.6 84.45 145 101.59 142.47 101.28 141.97 83.36"/><polygon class="cls-1" points="147.38 85.37 150.01 86.4 150.41 102.59 147.88 102.29 147.38 85.37"/><polygon class="cls-1" points="152.15 86.81 154.78 87.8 155.18 103.27 152.65 102.99 152.15 86.81"/><polygon class="cls-1" points="156.6 88.31 159.22 89.23 159.63 103.8 157.09 103.53 156.6 88.31"/><polygon class="cls-1" points="177.03 94.03 178.97 94.83 179.05 106.91 177.18 106.66 177.03 94.03"/><polygon class="cls-1" points="179.77 95.06 181.38 95.81 181.42 107.27 179.87 107.04 179.77 95.06"/><polygon class="cls-1" points="181.96 96.05 183.57 96.77 183.62 107.56 182.07 107.33 181.96 96.05"/><polygon class="cls-1" points="184.11 96.98 185.71 97.65 185.78 107.77 184.22 107.56 184.11 96.98"/><polygon class="cls-1" points="186.18 97.88 187.79 98.51 187.87 107.97 186.31 107.77 186.18 97.88"/><polygon class="cls-1" points="188.02 98.56 189.39 99.16 189.44 108.19 188.11 108 188.02 98.56"/><polygon class="cls-1" points="189.75 99.23 191.13 99.8 191.18 108.38 189.86 108.19 189.75 99.23"/><polygon class="cls-1" points="191.43 99.96 192.8 100.5 192.87 108.54 191.54 108.37 191.43 99.96"/><polygon class="cls-1" points="128.76 68.23 128.76 73.55 132 74.58 132 69.36 128.76 68.23"/><polygon class="cls-1" points="135.39 70.7 135.39 75.64 138.63 76.6 138.63 71.98 135.39 70.7"/><polygon class="cls-1" points="141.2 72.91 141.2 77.48 144.45 78.67 144.45 74.19 141.2 72.91"/><polygon class="cls-1" points="147.23 75.26 149.33 76.12 149.43 80.19 147.35 79.34 147.23 75.26"/><polygon class="cls-1" points="152.11 77.29 154.2 78.16 154.31 82.22 152.23 81.38 152.11 77.29"/><polygon class="cls-1" points="156.18 78.99 158.28 79.74 158.38 83.3 156.3 82.56 156.18 78.99"/><polygon class="cls-1" points="176.71 87.72 177.79 88.31 177.82 91.15 176.71 90.77 176.71 87.72"/><polygon class="cls-1" points="179.23 88.75 180.32 89.34 180.34 92.18 179.23 91.81 179.23 88.75"/><polygon class="cls-1" points="181.55 89.73 182.64 90.32 182.66 93.16 181.55 92.79 181.55 89.73"/><polygon class="cls-1" points="183.83 90.77 184.92 91.31 184.94 93.89 183.83 93.55 183.83 90.77"/><polygon class="cls-1" points="186.16 91.88 187 92.34 187.02 94.54 186.16 94.25 186.16 91.88"/></svg>