<svg id="Layer_1" data-name="Layer 1" xmlns="http://www.w3.org/2000/svg" viewBox="0 0 238.77 76.3"><defs><style>.cls-1{fill:#fff;}.cls-2{fill:#dc4405;}</style></defs><title>logo (1)</title><path class="cls-1" d="M60.58,28a23.25,23.25,0,0,0-2-6.52,11.46,11.46,0,0,0-2.82-3.69,8.32,8.32,0,0,0-5.39-2,10,10,0,0,0-2.72.38l2.6-5.57.31-.66L50,9.57,44.86,5.93l-.23-.16H40.35A5.32,5.32,0,0,1,37.8,4.52a13.6,13.6,0,0,0-8.39-2.94,11.92,11.92,0,0,0-8.45,3h0l-8.83,8.61h0l-.25.25-5.14,5h0A11.87,11.87,0,0,0,4.6,21.5a23.55,23.55,0,0,0-2,6.5,37.48,37.48,0,0,0,.54,15.88A42.29,42.29,0,0,0,10.78,59,65.18,65.18,0,0,0,29,74.54l2.16,1.3.45.27.45-.27,2.16-1.3A65.49,65.49,0,0,0,52.4,59,42.18,42.18,0,0,0,60,43.92,37.5,37.5,0,0,0,60.58,28Z" transform="translate(-2 -1.57)"/><path d="M27.4,22.2H19.5l-.71,11.9a4.59,4.59,0,0,1,1.26.38Z" transform="translate(-2 -1.57)"/><path d="M21.26,49.18h-.07v1l.39.17a6.27,6.27,0,0,0,2.46.44,6.22,6.22,0,0,0,2.62-.51v-1a5.41,5.41,0,0,1-2.62.59,5.24,5.24,0,0,1-2.46-.52Z" transform="translate(-2 -1.57)"/><path d="M21.59,52.88l-.33-.15h-.07v1l.39.17a6.27,6.27,0,0,0,2.46.44,6.45,6.45,0,0,0,2-.28v-.92a5.46,5.46,0,0,1-2,.33A5.36,5.36,0,0,1,21.59,52.88Z" transform="translate(-2 -1.57)"/><path d="M21.59,56.41l-.33-.15h-.07v1l.39.17A6.23,6.23,0,0,0,24,57.8a7.67,7.67,0,0,0,1.17-.08v-.88a6.6,6.6,0,0,1-1.17.1A5.43,5.43,0,0,1,21.59,56.41Z" transform="translate(-2 -1.57)"/><path d="M30.47,5.82a8.37,8.37,0,0,1,1.88.65,11.59,11.59,0,0,1,1.71,1.06,26.2,26.2,0,0,0,2.63,1.82V7.88c-.67-.37-1.34-.81-2-1.24a13.18,13.18,0,0,0-1.94-1,8.69,8.69,0,0,0-2.13-.56,9.84,9.84,0,0,0-2.17,0H28.3v.58h.15A9.78,9.78,0,0,1,30.47,5.82Z" transform="translate(-2 -1.57)"/><path d="M59.72,28.19a22.6,22.6,0,0,0-1.91-6.28,10.5,10.5,0,0,0-2.6-3.42,7.44,7.44,0,0,0-4.83-1.78,8.3,8.3,0,0,0-6.07,2.49l-2.63-2.84.43-.91h3.58l-.43.92h1.37l2.84-6.08L44.35,6.64h-4a5.81,5.81,0,0,1-3-1.41,12.71,12.71,0,0,0-7.89-2.78,11,11,0,0,0-7.9,2.75l-9.09,8.86h0l-5.12,5a11.05,11.05,0,0,0-2,2.84,22.6,22.6,0,0,0-1.91,6.28A36.45,36.45,0,0,0,4,43.7a41.46,41.46,0,0,0,7.49,14.75,64.49,64.49,0,0,0,18,15.34l2.16,1.3,2.16-1.3a64.49,64.49,0,0,0,18-15.34A41.4,41.4,0,0,0,59.2,43.7,36.55,36.55,0,0,0,59.72,28.19ZM22.41,6.11c.65-.6,2.62-2.41,7-2.41A11.47,11.47,0,0,1,36.6,6.26a6.64,6.64,0,0,0,3.75,1.63H44l4,2.81-1.64,3.5H42.72a2.41,2.41,0,0,1-1.43-.57,2.61,2.61,0,0,1-.88-1.8h-.62A3.52,3.52,0,0,0,40,13.12a3.17,3.17,0,0,0,.68,1.18,3.47,3.47,0,0,0,.45.41L40.2,16.6l2.42,2.62H40.78l-3.19-2.73h-.74l2.35,2.73H34.48L31.76,16.5H30.14a6.36,6.36,0,0,0,.55-2.31v-1.3l-.08-.43A6.7,6.7,0,0,0,30,10.85a6.42,6.42,0,0,0-1-1.37l-.15-.15-.16-.14-.33-.28a6.71,6.71,0,0,0-.71-.47,5.93,5.93,0,0,0-2.49-.8H24.4v.6a5.52,5.52,0,0,1,2.84.88,5.13,5.13,0,0,1,.6.44l.27.26.13.13.12.14a5.55,5.55,0,0,1,.82,1.22,5.65,5.65,0,0,1,.45,1.39v1.45a5.22,5.22,0,0,1-1,2.65l-.74,1h3.4l1.48,1.48h-14V14.06H14.25Zm-6.3,18.13a4.62,4.62,0,0,1-4,3.46h-.46A4.62,4.62,0,0,1,7,23.4v-.31a4.63,4.63,0,0,1,1.46-3.37L13,15.31h4.5v4.43ZM58,43.38a38.07,38.07,0,0,1-3.72,9h0l-.26.45-.2.33-.26.43-.23.37-.25.39-.46.71-.18.27-.36.52-.21.29-.37.52-.19.25-.57.75h0l-.55.69a54.73,54.73,0,0,1-7.11,7.25,70.26,70.26,0,0,1-6.49,4.9c-1.12.75-2.27,1.48-3.46,2.2l-1.52.91h0l-1.52-.91a63.13,63.13,0,0,1-17.62-15l-.37-.49-.25-.33-.44-.61L11.23,56l-.49-.71-.08-.12-.52-.78h0a38.74,38.74,0,0,1-4.93-11,35.31,35.31,0,0,1-.5-15A25.67,25.67,0,0,1,5.82,24a5.81,5.81,0,0,0,1,2.53c-.17.68-.32,1.39-.46,2.18-.21,1.23-.36,2.46-.45,3.7l8.21,3.84a4.74,4.74,0,0,1,.46-.62,4.89,4.89,0,0,1,.4-.39l-5-6.47a5.82,5.82,0,0,0,2.72.1l3.37,5.63a4.59,4.59,0,0,1,1.26-.38l-.5-8.43a6.44,6.44,0,0,0,.41-1.11l1.2-4v-.14H44.85l.19-.21A6.92,6.92,0,0,1,50.38,18a6.23,6.23,0,0,1,4,1.48,9.23,9.23,0,0,1,2.29,3,21.27,21.27,0,0,1,1.79,5.93A35.32,35.32,0,0,1,58,43.38Z" transform="translate(-2 -1.57)"/><circle cx="42.25" cy="8.84" r="0.67"/><path d="M40.41,10.76h0a1.37,1.37,0,0,1,1-1V9.08H39.78v1.68Z" transform="translate(-2 -1.57)"/><path d="M56.77,28.7c-.71-4.1-2.39-9-6.39-9a5.12,5.12,0,0,0-4.62,2.5H31.16l-10,13a4,4,0,0,1,.36.35,4.52,4.52,0,0,1,.53.71L29.23,33l-.59,2.59-6,1.91a4.93,4.93,0,0,1,.17,1.38,4,4,0,0,1-.59-.16,5.89,5.89,0,0,1-.58-.24l-.28-.13-.56-.26a6,6,0,0,0-1.5-.43H16.9a5.78,5.78,0,0,0-1.46.41l-.61.28-.29.14a4.84,4.84,0,0,1-.57.23,4,4,0,0,1-.59.16,4.93,4.93,0,0,1,.19-1.43L5.86,34.92A21.84,21.84,0,0,0,6,37.61H6v.83H6v.42h.75l.52.07h0a5.76,5.76,0,0,1,1.55.56,6.54,6.54,0,0,0,3.24.77,6.54,6.54,0,0,0,3.24-.77c.23-.11.46-.22.7-.31a4.72,4.72,0,0,1,1.66-.33h.71a5,5,0,0,1,1.58.31,7.35,7.35,0,0,1,.76.34,6.54,6.54,0,0,0,3.24.77,6.54,6.54,0,0,0,3.24-.77l.54-.25-.27,1.2,1.15-.23-.27,1.27a7,7,0,0,0-1.6.6,5.6,5.6,0,0,1-2.78.67,5.6,5.6,0,0,1-2.78-.67A6.34,6.34,0,0,0,18,41.33a6.34,6.34,0,0,0-3.16.76,5.6,5.6,0,0,1-2.78.67,5.6,5.6,0,0,1-2.78-.67,6.86,6.86,0,0,0-1.56-.59H7.19c-.25,0-.51,0-.76-.06.06.29.13.59.2.88l.51,0h.29l.26.06h0l.26.08a7.24,7.24,0,0,1,1,.41,6.34,6.34,0,0,0,3.16.76,6.34,6.34,0,0,0,3.16-.76,5.6,5.6,0,0,1,2.78-.67,5.6,5.6,0,0,1,2.78.67,6.34,6.34,0,0,0,3.16.76,6.34,6.34,0,0,0,3.16-.76,8.8,8.8,0,0,1,1-.42l-.57,2.62a6.92,6.92,0,0,0-.9.4,5.31,5.31,0,0,1-2.7.65,5.31,5.31,0,0,1-2.7-.65A6.54,6.54,0,0,0,18,44.75a6.54,6.54,0,0,0-3.24.77,5.31,5.31,0,0,1-2.7.65,5.31,5.31,0,0,1-2.7-.65l-.57-.26H8.76a5.77,5.77,0,0,0-1.35-.38q.22.69.48,1.38h0A37.2,37.2,0,0,0,10.64,52l.15.26.24.4.18.29.24.38.2.32.23.36.23.34.23.33.26.38.21.3.32.43.17.24.51.67A61.59,61.59,0,0,0,31,71.23l.62.37.62-.37A61.67,61.67,0,0,0,49.35,56.62h0c.26-.33.51-.67.76-1l.09-.13.73-1L51,54.4c.51-.74,1-1.49,1.43-2.25A38,38,0,0,0,55.34,46h0c.15-.4.29-.8.42-1.21a5.77,5.77,0,0,0-1.35.38h-.07l-.57.26a5.91,5.91,0,0,1-5.4,0,7.18,7.18,0,0,0-6.48,0,5.91,5.91,0,0,1-5.4,0c-.28-.13-.57-.27-.9-.4l-1-4.84,1.15.23h0L35,37.36l3.77-3.74,2.48,1.83,3.89-3.93,3.82,4,2.48-1.82,4.45,4.51L57,39.32c0-.39.1-.79.14-1.19h0v-.41h0A35.4,35.4,0,0,0,56.77,28.7Zm-7.31.57.07-.23H51l.44-1.35h.24L52.07,29h1.42l.07.23-1.15.84.44,1.35-.19.14-1.15-.84-1.15.84-.19-.14.44-1.35Zm-3-.16-.19.14-1.15-.84L44,29.25l-.19-.14.44-1.35L43,26.92l.07-.23h1.42L45,25.34h.24l.44,1.35H47.1l.07.23L46,27.76ZM40,31.46l-.19.14-1.15-.84-1.15.84-.19-.14.44-1.35-1.15-.84.07-.23H38.1l.44-1.35h.24L39.2,29h1.42l.07.23-1.15.84Zm-5.22,16-1.41-.29h0L35.3,56.4h0l-3.7-1.49L27.9,56.4h0l1.93-9.24-1.41.29h0l1.84-8.78h0l-1.06.22,2.29-12.22h.23L34,38.86l-1.06-.22h0ZM32.34,57.6l.29,8.73H30.55l.3-8.73V56.18l.68-.34.71.35Zm-2.55,2.51v.56a4.25,4.25,0,0,0-2,.54,7.46,7.46,0,0,1-3.7.88,7.43,7.43,0,0,1-3.55-.81l-.14-.07L20,61h-.06a4.09,4.09,0,0,0-.49-.18l.52-.44h0l.14-.12c.27.1.52.22.77.34l.32.15a6.21,6.21,0,0,0,2.84.6,6.34,6.34,0,0,0,3.16-.76,5.42,5.42,0,0,1,2.61-.67ZM42,60.74l.32-.15c.25-.12.5-.24.77-.34l.69.58a5.2,5.2,0,0,0-.55.21h0l-.32.15-.14.07a8.2,8.2,0,0,1-7.25-.07,4.25,4.25,0,0,0-2-.54V59.9a5.43,5.43,0,0,1,2.62.67,6.34,6.34,0,0,0,3.16.76A6.08,6.08,0,0,0,42,60.74ZM27.28,46.59h0L26.79,49h0l1.46-.3-2.1,9.79,3.91-1.94L30,57.91,29.87,59a6.37,6.37,0,0,0-3.05.75,5.6,5.6,0,0,1-2.78.67,5.33,5.33,0,0,1-2.6-.58l-.18-.09c-.28-.13-.56-.27-.88-.39V47.3h0l-.88.7V59.62l-.78.65h0V47.51l1.55-1.16h.07l.31.14.15.07c.24.11.48.23.76.34h0a6.47,6.47,0,0,0,2.46.42A6.6,6.6,0,0,0,27.28,46.59Zm8.61,0a6.54,6.54,0,0,0,3.24.77,6.47,6.47,0,0,0,2.46-.42h0c.28-.11.52-.23.76-.34h0l.42-.19h.07l1.55,1.16v12.7h0l-.78-.65V48l-.87-.66V59.42a9,9,0,0,0-.88.39l-.18.09a5.33,5.33,0,0,1-2.6.58,5.6,5.6,0,0,1-2.78-.67,6.22,6.22,0,0,0-3-.81l-.09-1.1-.1-1.32,3.9,2-.27-1.26L34.9,48.74l1.46.3-.53-2.46Z" transform="translate(-2 -1.57)"/><path d="M41.59,50.28l.39-.17v-1h-.07l-.33.15a5.24,5.24,0,0,1-2.46.52,5.41,5.41,0,0,1-2.62-.59v1a7.06,7.06,0,0,0,5.08.07Z" transform="translate(-2 -1.57)"/><path d="M41.59,52.88a5.24,5.24,0,0,1-2.46.52,5.46,5.46,0,0,1-2-.33V54a6.45,6.45,0,0,0,2,.28,6.27,6.27,0,0,0,2.46-.44l.39-.17v-1h-.07Z" transform="translate(-2 -1.57)"/><path d="M41.59,56.41a5.24,5.24,0,0,1-2.46.52,6.6,6.6,0,0,1-1.17-.1v.88a7.67,7.67,0,0,0,1.17.08,6.27,6.27,0,0,0,2.46-.44l.39-.17v-1h-.07Z" transform="translate(-2 -1.57)"/><polygon points="8.43 22.67 8.92 23 14.02 16.03 14.02 15.14 13.18 15.14 8.43 22.67"/><polygon points="37.34 40.28 37.34 37.28 36.08 37.28 36.08 38.01 36.49 38.01 36.49 40.28 37.34 40.28"/><path d="M41.75,41a1.19,1.19,0,0,0,1.44.87,1.2,1.2,0,0,0,.87-.87.8.8,0,0,0-.52-.77.74.74,0,0,0,.4-.66,1.05,1.05,0,0,0-1.21-.86,1.06,1.06,0,0,0-.86.86.74.74,0,0,0,.4.66A.8.8,0,0,0,41.75,41Zm1.16-1.13a.28.28,0,1,1,.28-.28h0a.28.28,0,0,1-.23.33H42.9Zm0,1.34a.31.31,0,0,1-.3-.31.31.31,0,0,1,.61,0,.32.32,0,0,1-.26.36H42.9Z" transform="translate(-2 -1.57)"/><path d="M47.28,38.85l-.64.84a2.09,2.09,0,0,0-.48,1.19,1.11,1.11,0,0,0,.41.83,1.39,1.39,0,0,0,.86.26,1.19,1.19,0,0,0,1.29-1.06v-.08a1,1,0,0,0-.93-1.07h-.36l.79-.95Zm.15,1.56a.44.44,0,0,1,.37.5.45.45,0,0,1-.37.37.44.44,0,1,1-.13-.87Z" transform="translate(-2 -1.57)"/><path d="M50.68,41a1.19,1.19,0,0,0,1.43.89A1.17,1.17,0,0,0,53,41a.8.8,0,0,0-.52-.77.74.74,0,0,0,.4-.66,1.05,1.05,0,0,0-1.21-.86,1.06,1.06,0,0,0-.86.86.74.74,0,0,0,.4.66A.82.82,0,0,0,50.68,41Zm1.16-1.13a.28.28,0,1,1,.28-.28h0a.28.28,0,0,1-.23.33h-.06Zm0,1.34a.31.31,0,0,1-.3-.31.31.31,0,0,1,.61,0,.32.32,0,0,1-.26.36h-.06Z" transform="translate(-2 -1.57)"/><path class="cls-1" d="M67.29,30c0-6.87,3.73-11.1,10.3-11.1S87.85,23.09,87.85,30,84.12,41.1,77.59,41.1,67.29,36.82,67.29,30Zm15.09,0c0-6.76-1.5-9.35-4.78-9.35S72.77,23.2,72.77,30s1.5,9.35,4.82,9.35S82.38,36.67,82.38,30Z" transform="translate(-2 -1.57)"/><path class="cls-1" d="M98.15,39.56l-.47,1.13H88.77v-1l1.5-.66V29l-1.53-2.41v-.4l5.52-1.83H95l-.11,3.73H95c.73-1.86,2.16-3.73,4.57-3.73a2.8,2.8,0,0,1,3.09,2.48,3.23,3.23,0,0,1,0,.44A2.49,2.49,0,0,1,100.4,30h-.2a2.38,2.38,0,0,1-2.52-2.25,1.61,1.61,0,0,1,0-.31A7.43,7.43,0,0,0,95,29.77v9.09Z" transform="translate(-2 -1.57)"/><path class="cls-1" d="M111.67,38a5.75,5.75,0,0,0,3.94-1.42l.69.8c-1.17,2.63-3.4,3.69-6.5,3.69-4.16,0-7.45-2.67-7.45-8.11s3.73-8.55,8.15-8.55c3.58,0,6.06,2.08,6.06,5.92a10.38,10.38,0,0,1-.18,2.08H107C107.1,35.73,108.56,38,111.67,38Zm-4.57-7.31h5.15a6.1,6.1,0,0,0,.11-1.35c0-1.72-.47-3.25-2.19-3.25s-2.78,1.49-3.07,4.59Z" transform="translate(-2 -1.57)"/><path class="cls-1" d="M128.25,37.51c3.47,0,5.66,1.68,5.66,5.19,0,4.46-4.42,6.1-9.24,6.1-4.46,0-7.74-1-7.74-3.84,0-2.08,1.64-3,4.13-3.4v-.11C119,41.2,117.8,40,117.8,38.1s1.42-3,3.43-3.43a4.57,4.57,0,0,1-3.4-4.57c0-3.21,2.41-5.7,7-5.7a14,14,0,0,1,5.84,1.21,1.52,1.52,0,0,1-.22-.88,1.86,1.86,0,0,1,1.84-1.9h.16a1.93,1.93,0,0,1,2,1.87.74.74,0,0,1,0,.21,2,2,0,0,1-1.82,2.17,1.88,1.88,0,0,1-.41,0,8.32,8.32,0,0,1-2.89-.77v.37a3.66,3.66,0,0,1,2.16,3.47c0,3.51-3.51,5.08-6.72,5.08a8.83,8.83,0,0,1-2.23-.26c-.77.26-1.35.66-1.35,1.46s.44,1.1,1.31,1.1Zm-7.31,6.83c0,1.94,1.42,2.85,3.94,2.85,2.89,0,5.08-.8,5.08-3.1,0-1.39-.73-2.23-2.89-2.23h-4.6a2.67,2.67,0,0,0-1.53,2.49ZM124.71,26c-1.86,0-2.19,1.42-2.19,3.8s.33,3.76,2.19,3.76,2.23-1.42,2.23-3.76S126.61,26,124.71,26Z" transform="translate(-2 -1.57)"/><path class="cls-1" d="M141.25,41.06c-4.93,0-8.18-2.81-8.18-8.33s3.25-8.33,8.18-8.33,8.18,2.81,8.18,8.33S146.18,41.06,141.25,41.06Zm0-1.68c2.45,0,3.1-2.41,3.1-6.65s-.66-6.65-3.1-6.65-3.1,2.41-3.1,6.65S138.81,39.38,141.25,39.38Z" transform="translate(-2 -1.57)"/><path class="cls-1" d="M168.61,39.63l-.47,1.06h-8v-1l1.5-.69V31c0-2.37-1.24-3.18-2.59-3.18a4.24,4.24,0,0,0-2.89,1.24v9.86l2.16.69-.47,1.06h-8v-1l1.5-.66V29l-1.53-2.41v-.4l5.52-1.79h.77L156,27.58h.15a6.25,6.25,0,0,1,5.59-3.18c2.67,0,4.71,1.86,4.71,5.59v9Z" transform="translate(-2 -1.57)"/><path class="cls-1" d="M183.33,36.35c0-2-1-2.92-3.43-3.87l-2.63-1.1A6.14,6.14,0,0,1,173,25.1c0-4.35,3.36-6.25,6.9-6.25a14.93,14.93,0,0,1,4.64.8l1.79-.8.33,6.06-1,.22-1.75-2.3a4.66,4.66,0,0,0-4.13-2.34A2.67,2.67,0,0,0,176.9,23c0,.11,0,.21,0,.32,0,1.68.77,2.67,3,3.54l2.74,1.1c3.43,1.35,4.93,3.32,4.93,6.68,0,4.38-3.32,6.47-7.23,6.47a10,10,0,0,1-5-1.17l-2,1.17-.62-6.94,1.13-.22,1.79,2.59c1.21,1.86,2.56,2.85,4.64,2.85a2.79,2.79,0,0,0,3-2.52A2.46,2.46,0,0,0,183.33,36.35Z" transform="translate(-2 -1.57)"/><path class="cls-1" d="M187.82,25.46l5.84-5h1.1v4.31h4.82l-.26,1.9H194.8v8.62c0,2.12.8,2.92,2.26,2.92a5.25,5.25,0,0,0,2.7-.77l.37.88a6.07,6.07,0,0,1-5.3,2.74c-2.85,0-4.82-1.42-4.82-5.15V26.67h-2.19Z" transform="translate(-2 -1.57)"/><path class="cls-1" d="M213.93,37.19c0,1.64.58,2,2.3,1.83l.11.73a5.21,5.21,0,0,1-3.84,1.31c-1.57,0-2.89-.66-3.18-2.34h-.11c-.77,1.64-2.45,2.37-4.42,2.37-2.45,0-4.46-1.35-4.46-4.38,0-3.21,2.56-4.78,6.61-4.78a9.54,9.54,0,0,1,2.19.29V30.79c0-2.12-1.35-3.18-3.51-3.18a8.71,8.71,0,0,0-4.35,1.1l-.44-1.06a8.49,8.49,0,0,1,7.09-3.25c3,0,6,1.35,6,5.81Zm-5.59-3.62c-2.16,0-3.4.55-3.4,2.48a2,2,0,0,0,1.71,2.25,2.06,2.06,0,0,0,.35,0,2.92,2.92,0,0,0,2.12-.77v-4Z" transform="translate(-2 -1.57)"/><path class="cls-1" d="M214.59,25.46l5.84-5h1.1v4.31h4.82l-.26,1.9h-4.53v8.62c0,2.12.8,2.92,2.26,2.92a5.25,5.25,0,0,0,2.7-.77l.37.88a6.1,6.1,0,0,1-5.3,2.74c-2.85,0-4.82-1.42-4.82-5.15V26.67h-2.19Z" transform="translate(-2 -1.57)"/><path class="cls-1" d="M235.88,38a5.75,5.75,0,0,0,3.94-1.42l.69.8c-1.17,2.63-3.4,3.69-6.5,3.69-4.16,0-7.45-2.67-7.45-8.11s3.73-8.55,8.15-8.55c3.58,0,6.06,2.08,6.06,5.92a10.38,10.38,0,0,1-.18,2.08h-9.35C231.32,35.73,232.78,38,235.88,38Zm-4.57-7.31h5.15a6.1,6.1,0,0,0,.11-1.35c0-1.72-.47-3.25-2.19-3.25s-2.77,1.49-3.06,4.59Z" transform="translate(-2 -1.57)"/><path class="cls-2" d="M85.88,62.31c0,5.33-3.54,8-8.18,8-4.93,0-8.33-2-8.33-7.63V50.51l-2.7-.84.26-1.17h8.25l.29,1.17-2.74.84V62.2c0,4.16,1.75,6.1,5.26,6.1s5.73-1.94,5.73-6.36V50.51L81,49.67l.29-1.17h7l.29,1.17-2.74.84Z" transform="translate(-2 -1.57)"/><path class="cls-2" d="M105,68.92,104.55,70h-7V69l1.72-.62v-9c0-2.34-1.46-2.81-2.7-2.81A6,6,0,0,0,92.82,58V68.23l2.56.69L94.9,70h-7V69l1.72-.58V57.75l-1.75-2v-.4l4.38-1.68h.55l-.11,3.1h.15a6.17,6.17,0,0,1,5.33-3.1c2.12,0,4.31,1.28,4.31,5V68.2Z" transform="translate(-2 -1.57)"/><path class="cls-2" d="M112.91,68.92,112.43,70h-7V69l1.72-.58V57.75l-1.75-2v-.4l4.38-1.68h.58V68.23Zm-4.2-22.28a2.26,2.26,0,1,1-2.26,2.26,2.23,2.23,0,0,1,2.2-2.26Z" transform="translate(-2 -1.57)"/><path class="cls-2" d="M124,55.92l-2.41-.8.22-1.06h5.92l.22,1.06-1.68.69L120.69,70h-1.83l-5.81-14-1.57-1,.26-1h6.72l.26,1.1-2.34.58,2.56,6.43a28.38,28.38,0,0,1,1.31,4.42h.15a34.23,34.23,0,0,1,1.35-4.46Z" transform="translate(-2 -1.57)"/><path class="cls-2" d="M134.82,68a7.26,7.26,0,0,0,4.53-1.5l.47.84a6.54,6.54,0,0,1-6,3c-3.91,0-7-2.7-7-8.18s3.43-8.47,7.52-8.47c3.29,0,5.66,2,5.66,5.73a8.68,8.68,0,0,1-.18,1.9h-9.94C129.89,65.52,131.76,68,134.82,68ZM130,59.75h6.68a8.34,8.34,0,0,0,0-1c0-2.3-.91-3.51-2.81-3.51S130.51,56.65,130,59.75Z" transform="translate(-2 -1.57)"/><path class="cls-2" d="M148.81,68.89l-.47,1.1H140.6V69l1.72-.58V57.75l-1.75-2v-.4L145,53.67h.55l-.11,3.76h.15c.91-2,2.56-3.8,4.64-3.8,1.72,0,2.7.95,2.7,2.37A2.06,2.06,0,0,1,151,58.22h-.24a2,2,0,0,1-2.1-1.89,1.9,1.9,0,0,1,0-.34,7.17,7.17,0,0,0-3.14,3v9.28Z" transform="translate(-2 -1.57)"/><path class="cls-2" d="M153.82,64.83c1.53,3.29,3,4.13,4.93,4.13,1.64,0,2.74-.58,2.74-2.3,0-1.39-.8-2.16-2.63-2.78l-2.08-.73c-2.19-.77-3.62-2.12-3.62-4.82,0-3.14,2.26-4.64,5.33-4.64a7.72,7.72,0,0,1,2.92.66l1.75-.62.29,4.68-.77.26c-1.57-2.7-2.85-3.47-4.42-3.47a2.2,2.2,0,0,0-2.46,1.9,2.83,2.83,0,0,0,0,.29c0,1.31.66,2.15,2.45,2.78l2.08.69c2.41.84,3.91,2.12,3.91,4.89,0,3.25-2.45,4.6-5.7,4.6a8.57,8.57,0,0,1-3.62-.84l-1.64.84-.33-5.26Z" transform="translate(-2 -1.57)"/><path class="cls-2" d="M172.48,68.92,172,70h-7V69l1.72-.58V57.75l-1.75-2v-.4l4.38-1.68h.58V68.23Zm-4.2-22.28A2.26,2.26,0,1,1,166,48.91a2.23,2.23,0,0,1,2.19-2.27Z" transform="translate(-2 -1.57)"/><path class="cls-2" d="M171.38,54.75l4.57-5h.73V54.1H182l-.26,1.72h-5.08v9.5c0,2,.88,2.89,2.41,2.89a6.17,6.17,0,0,0,3-.77l.37.91a6.06,6.06,0,0,1-5,2c-2.45,0-4-1.28-4-4.53v-10h-2.08Z" transform="translate(-2 -1.57)"/><path class="cls-2" d="M182,56l-1.57-1,.26-1h6.76l.26,1.1-2.34.58L188,62.6a20.07,20.07,0,0,1,1.21,4.64h.15s.62-2.34,1.39-4.68l2.16-6.65-2.41-.8.22-1.06h5.84l.22,1.06-1.68.69L190,69.65c-2.3,6.25-4.24,8.22-7.23,8.22-1.9,0-2.92-1.1-2.92-2.48a2,2,0,0,1,1.87-2.12h.21a1.78,1.78,0,0,1,1.86,1.7v.16a2.12,2.12,0,0,1-.37,1.24c1.46,0,3.36-2.67,4.38-5.84Z" transform="translate(-2 -1.57)"/></svg>