<svg id="Layer_2" data-name="Layer 2" xmlns="http://www.w3.org/2000/svg" xmlns:xlink="http://www.w3.org/1999/xlink" viewBox="0 0 365 122"><defs><style>.cls-1{fill:url(#linear-gradient);}.cls-2{fill:url(#radial-gradient);}</style><linearGradient id="linear-gradient" x1="182.5" y1="122" x2="182.5" gradientUnits="userSpaceOnUse"><stop offset="0" stop-color="#212121"/><stop offset="0.29" stop-color="#020202"/></linearGradient><radialGradient id="radial-gradient" cx="299.5" cy="162" r="136.06" gradientUnits="userSpaceOnUse"><stop offset="0" stop-color="#020202"/><stop offset="1" stop-color="#bdbdbd"/></radialGradient></defs><title>pretty button</title><rect class="cls-1" width="365" height="122" rx="21.6" ry="21.6"/><path class="cls-2" d="M460.4,103A19.62,19.62,0,0,1,480,122.6v78.8A19.62,19.62,0,0,1,460.4,221H138.6A19.62,19.62,0,0,1,119,201.4V122.6A19.62,19.62,0,0,1,138.6,103H460.4m0-2H138.6A21.66,21.66,0,0,0,117,122.6v78.8A21.66,21.66,0,0,0,138.6,223H460.4A21.66,21.66,0,0,0,482,201.4V122.6A21.66,21.66,0,0,0,460.4,101Z" transform="translate(-117 -101)"/></svg>