<svg xmlns="http://www.w3.org/2000/svg" viewBox="3219 3197 122.979 123">
  <defs>
    <style>
      .cls-1 {
        fill: #fff;
      }
    </style>
  </defs>
  <path id="search" class="cls-1" d="M121.306,106.341,97.357,82.392a5.761,5.761,0,0,0-4.084-1.681H89.358a49.941,49.941,0,1,0-8.648,8.648v3.915a5.761,5.761,0,0,0,1.681,4.084l23.949,23.949a5.741,5.741,0,0,0,8.143,0l6.8-6.8A5.792,5.792,0,0,0,121.306,106.341ZM49.964,80.711A30.747,30.747,0,1,1,80.711,49.964,30.729,30.729,0,0,1,49.964,80.711Z" transform="translate(3219 3197)"/>
</svg>
